<?xml version="1.0" encoding="UTF-8"?>
<svg version="1.1" xmlns="http://www.w3.org/2000/svg" width="199" height="50">
<path d="M0 0 C1.18613892 0.00785522 1.18613892 0.00785522 2.39624023 0.01586914 C3.67724609 0.02070312 3.67724609 0.02070312 4.98413086 0.02563477 C5.88196289 0.03401367 6.77979492 0.04239258 7.70483398 0.05102539 C8.6065332 0.05553711 9.50823242 0.06004883 10.43725586 0.06469727 C12.67234712 0.07652315 14.90730835 0.09300319 17.14233398 0.11352539 C17.80233398 1.76352539 18.46233398 3.41352539 19.14233398 5.11352539 C19.92608398 4.28852539 20.70983398 3.46352539 21.51733398 2.61352539 C25.09862247 -0.36522404 28.18122303 -0.5552999 32.73608398 -0.30834961 C36.34154215 0.32377617 38.47342152 1.64478136 41.14233398 4.11352539 C43.48160977 7.77500054 43.36008871 11.02547937 42.67749023 15.18383789 C41.82373708 18.26233468 40.47793861 19.96729411 38.14233398 22.11352539 C33.46206378 24.45366049 29.09374414 24.65509845 24.14233398 23.11352539 C20.20005821 20.37107268 18.9720631 18.12962149 18.14233398 13.55102539 C18.05983398 12.80723633 17.97733398 12.06344727 17.89233398 11.29711914 C17.09614428 8.34459709 17.09614428 8.34459709 12.14233398 5.11352539 C11.81233398 10.06352539 11.48233398 15.01352539 11.14233398 20.11352539 C11.80233398 20.11352539 12.46233398 20.11352539 13.14233398 20.11352539 C13.14233398 21.10352539 13.14233398 22.09352539 13.14233398 23.11352539 C9.18233398 23.11352539 5.22233398 23.11352539 1.14233398 23.11352539 C1.80233398 21.79352539 2.46233398 20.47352539 3.14233398 19.11352539 C3.38406106 15.60483125 3.38406106 15.60483125 3.26733398 11.86352539 C3.24026367 9.96860352 3.24026367 9.96860352 3.21264648 8.03540039 C3.18944336 7.07118164 3.16624023 6.10696289 3.14233398 5.11352539 C2.15233398 5.11352539 1.16233398 5.11352539 0.14233398 5.11352539 C-0.18766602 6.10352539 -0.51766602 7.09352539 -0.85766602 8.11352539 C-1.51766602 8.11352539 -2.17766602 8.11352539 -2.85766602 8.11352539 C-2.90008325 5.78057764 -2.89859539 3.44649972 -2.85766602 1.11352539 C-1.85766602 0.11352539 -1.85766602 0.11352539 0 0 Z M28.14233398 4.11352539 C25.88553365 5.94360739 25.88553365 5.94360739 25.91186523 8.64477539 C25.92604492 9.62446289 25.94022461 10.60415039 25.95483398 11.61352539 C25.9612793 12.59321289 25.96772461 13.57290039 25.97436523 14.58227539 C25.97792672 17.10721923 25.97792672 17.10721923 27.14233398 19.11352539 C30.05867528 19.36374109 30.05867528 19.36374109 33.14233398 19.11352539 C35.60758942 15.41564223 35.7034394 12.40382375 35.14233398 8.11352539 C34.0742357 5.57310279 34.0742357 5.57310279 32.14233398 4.11352539 C30.82233398 4.11352539 29.50233398 4.11352539 28.14233398 4.11352539 Z " fill="#ABABAB" transform="translate(114.857666015625,3.886474609375)"/>
<path d="M0 0 C2.97 0 5.94 0 9 0 C9.67119549 1.4562545 10.33681807 2.91507867 11 4.375 C11.556875 5.59316406 11.556875 5.59316406 12.125 6.8359375 C13 9 13 9 13 11 C13.66 11 14.32 11 15 11 C15.20496094 10.37351562 15.40992187 9.74703125 15.62109375 9.1015625 C15.89050781 8.28429688 16.15992187 7.46703125 16.4375 6.625 C16.70433594 5.81289062 16.97117187 5.00078125 17.24609375 4.1640625 C18 2 18 2 19 0 C22.3 0 25.6 0 29 0 C28.34 1.32 27.68 2.64 27 4 C26.72006479 7.60158349 26.72006479 7.60158349 26.8125 11.5 C26.81894531 12.8096875 26.82539062 14.119375 26.83203125 15.46875 C26.88974624 19.11479334 26.88974624 19.11479334 28 23 C24.37 23 20.74 23 17 23 C17 22.01 17 21.02 17 20 C17.66 20 18.32 20 19 20 C18.67 18.68 18.34 17.36 18 16 C16.68 18.31 15.36 20.62 14 23 C13.01 23 12.02 23 11 23 C9.68 20.36 8.36 17.72 7 15 C6.67 16.65 6.34 18.3 6 20 C6.66 20 7.32 20 8 20 C8 20.99 8 21.98 8 23 C5.03 23 2.06 23 -1 23 C-0.34 21.68 0.32 20.36 1 19 C1.27993521 15.39841651 1.27993521 15.39841651 1.1875 11.5 C1.18105469 10.1903125 1.17460938 8.880625 1.16796875 7.53125 C1.11025376 3.88520666 1.11025376 3.88520666 0 0 Z " fill="#AEAFAF" transform="translate(43,4)"/>
<path d="M0 0 C2.64 0 5.28 0 8 0 C9.3417678 3.26743656 10.67194359 6.53946908 12 9.8125 C12.3815625 10.74126953 12.763125 11.67003906 13.15625 12.62695312 C13.5171875 13.51962891 13.878125 14.41230469 14.25 15.33203125 C14.58515625 16.15421143 14.9203125 16.9763916 15.265625 17.82348633 C16 20 16 20 16 23 C12.7 23 9.4 23 6 23 C6.33 21.68 6.66 20.36 7 19 C5.87465895 17.64381501 5.87465895 17.64381501 2.9375 17.9375 C1.968125 17.958125 0.99875 17.97875 0 18 C0.33 19.65 0.66 21.3 1 23 C-1.64 23 -4.28 23 -7 23 C-7 22.01 -7 21.02 -7 20 C-6.34 20 -5.68 20 -5 20 C-3.99445962 16.66830955 -2.99643821 13.33442251 -2 10 C-1.78730469 9.30132812 -1.57460937 8.60265625 -1.35546875 7.8828125 C-0.53466548 5.13105479 0 2.89248222 0 0 Z M3 10 C3 10.99 3 11.98 3 13 C3.66 12.67 4.32 12.34 5 12 C4.34 11.34 3.68 10.68 3 10 Z " fill="#ABABAB" transform="translate(79,4)"/>
<path d="M0 0 C1.18613892 0.00785522 1.18613892 0.00785522 2.39624023 0.01586914 C3.67724609 0.02070312 3.67724609 0.02070312 4.98413086 0.02563477 C5.88196289 0.03401367 6.77979492 0.04239258 7.70483398 0.05102539 C8.6065332 0.05553711 9.50823242 0.06004883 10.43725586 0.06469727 C12.67234712 0.07652315 14.90730835 0.09300319 17.14233398 0.11352539 C18.48396594 4.48200992 19.42813879 8.47189024 19.76733398 13.05102539 C19.84209961 14.00879883 19.91686523 14.96657227 19.99389648 15.95336914 C20.04288086 16.6662207 20.09186523 17.37907227 20.14233398 18.11352539 C18.14233398 16.11352539 18.14233398 16.11352539 17.82983398 12.73852539 C17.42366567 8.44917586 17.42366567 8.44917586 12.14233398 5.11352539 C11.81233398 10.06352539 11.48233398 15.01352539 11.14233398 20.11352539 C11.80233398 20.11352539 12.46233398 20.11352539 13.14233398 20.11352539 C13.14233398 21.10352539 13.14233398 22.09352539 13.14233398 23.11352539 C9.18233398 23.11352539 5.22233398 23.11352539 1.14233398 23.11352539 C1.80233398 21.79352539 2.46233398 20.47352539 3.14233398 19.11352539 C3.38406106 15.60483125 3.38406106 15.60483125 3.26733398 11.86352539 C3.24026367 9.96860352 3.24026367 9.96860352 3.21264648 8.03540039 C3.18944336 7.07118164 3.16624023 6.10696289 3.14233398 5.11352539 C2.15233398 5.11352539 1.16233398 5.11352539 0.14233398 5.11352539 C-0.18766602 6.10352539 -0.51766602 7.09352539 -0.85766602 8.11352539 C-1.51766602 8.11352539 -2.17766602 8.11352539 -2.85766602 8.11352539 C-2.90008325 5.78057764 -2.89859539 3.44649972 -2.85766602 1.11352539 C-1.85766602 0.11352539 -1.85766602 0.11352539 0 0 Z " fill="#757676" transform="translate(114.857666015625,3.886474609375)"/>
<path d="M0 0 C3.96 0 7.92 0 12 0 C11.67 0.99 11.34 1.98 11 3 C10.77202438 5.73289293 10.58331813 8.45042204 10.4375 11.1875 C10.39431641 11.93708984 10.35113281 12.68667969 10.30664062 13.45898438 C10.20077315 15.30578375 10.0999024 17.15286834 10 19 C13.07745908 17.78534783 16.06176804 16.52352768 19 15 C18.67 17.64 18.34 20.28 18 23 C12.06 23 6.12 23 0 23 C0 22.01 0 21.02 0 20 C0.66 20 1.32 20 2 20 C1.85879984 17.41633755 1.71221667 14.83317115 1.5625 12.25 C1.52318359 11.52039062 1.48386719 10.79078125 1.44335938 10.0390625 C1.23608465 6.53133638 0.8559939 3.42397562 0 0 Z " fill="#8B8B8B" transform="translate(97,4)"/>
<path d="M0 0 C3.3 0 6.6 0 10 0 C9.34 1.32 8.68 2.64 8 4 C7.72006479 7.60158349 7.72006479 7.60158349 7.8125 11.5 C7.81894531 12.8096875 7.82539062 14.119375 7.83203125 15.46875 C7.88974624 19.11479334 7.88974624 19.11479334 9 23 C5.37 23 1.74 23 -2 23 C-2 22.01 -2 21.02 -2 20 C-1.01 20 -0.02 20 1 20 C0.67 16.7 0.34 13.4 0 10 C-0.66 10.66 -1.32 11.32 -2 12 C-3.6442351 7.06729471 -2.18615592 4.45975807 0 0 Z " fill="#BDBDBD" transform="translate(62,4)"/>
<path d="M0 0 C5.28 0 10.56 0 16 0 C16 0.33 16 0.66 16 1 C14.35 1 12.7 1 11 1 C11.1404983 3.7920301 11.28715383 6.58349796 11.4375 9.375 C11.47681641 10.1690625 11.51613281 10.963125 11.55664062 11.78125 C11.68893404 16.02601221 11.68893404 16.02601221 13 20 C10.03 20 7.06 20 4 20 C4.33 19.34 4.66 18.68 5 18 C5.23274209 15.12089412 5.41972757 12.25853505 5.5625 9.375 C5.62727539 8.17230469 5.62727539 8.17230469 5.69335938 6.9453125 C5.79951457 4.9637489 5.90026855 2.98189729 6 1 C4.02 1.33 2.04 1.66 0 2 C0 1.34 0 0.68 0 0 Z " fill="#F1F1F1" transform="translate(114,6)"/>
<path d="M0 0 C1.65 0.33 3.3 0.66 5 1 C5.33 1.99 5.66 2.98 6 4 C6.33 2.68 6.66 1.36 7 0 C8.32 0 9.64 0 11 0 C11 1.98 11 3.96 11 6 C11.99 6 12.98 6 14 6 C14 7.32 14 8.64 14 10 C10.37 10 6.74 10 3 10 C3 9.34 3 8.68 3 8 C2.34 8 1.68 8 1 8 C1 8.66 1 9.32 1 10 C0.01 10 -0.98 10 -2 10 C-1.54177532 6.53058454 -1.10868317 3.32604951 0 0 Z " fill="#303030" transform="translate(75,33)"/>
<path d="M0 0 C2.97 0 5.94 0 9 0 C9 0.66 9 1.32 9 2 C8.34 2 7.68 2 7 2 C7 7.94 7 13.88 7 20 C5.35 20 3.7 20 2 20 C1.93941406 18.72382813 1.87882812 17.44765625 1.81640625 16.1328125 C1.73200432 14.46352984 1.64735614 12.79425963 1.5625 11.125 C1.52318359 10.28324219 1.48386719 9.44148437 1.44335938 8.57421875 C1.40146484 7.76855469 1.35957031 6.96289062 1.31640625 6.1328125 C1.26141968 5.01737061 1.26141968 5.01737061 1.20532227 3.87939453 C1.10044135 1.91135688 1.10044135 1.91135688 0 0 Z " fill="#F2F2F2" transform="translate(98,5)"/>
<path d="M0 0 C5.47051546 0.60783505 5.47051546 0.60783505 7.671875 2.23828125 C9.88233007 5.17038489 9.46176295 8.00025668 9.36328125 11.55078125 C8.85843014 14.95445483 7.51318492 16.70856669 5 19 C2.04335481 20.4783226 -0.74229737 20.06032783 -4 20 C-2 19 0 18 2 17 C2.96306898 14.11079306 3.1955936 12.07752119 3.25 9.0625 C3.27578125 8.20785156 3.3015625 7.35320313 3.328125 6.47265625 C2.93876562 3.53855522 1.93350171 2.19299799 0 0 Z " fill="#EDEDED" transform="translate(147,6)"/>
<path d="M0 0 C2.40566065 1.09391262 3.95563557 2.27842995 6 4 C5.67 4.66 5.34 5.32 5 6 C4.1028125 5.2575 4.1028125 5.2575 3.1875 4.5 C1.02970006 2.71723582 1.02970006 2.71723582 -2 3 C-1.50886719 3.38800781 -1.01773438 3.77601562 -0.51171875 4.17578125 C1.50725753 6.61211696 1.30898805 8.06930672 1.1875 11.1875 C1.16042969 12.08855469 1.13335937 12.98960938 1.10546875 13.91796875 C1.07066406 14.60503906 1.03585938 15.29210938 1 16 C0.67 16 0.34 16 0 16 C-0.66 12.7 -1.32 9.4 -2 6 C-3.65 5.67 -5.3 5.34 -7 5 C-8.73956658 6.73956658 -8.37190386 9.1936622 -8.5625 11.5625 C-8.64628906 12.57441406 -8.73007813 13.58632813 -8.81640625 14.62890625 C-8.87699219 15.41136719 -8.93757812 16.19382812 -9 17 C-9.33 17 -9.66 17 -10 17 C-10.02694851 15.04174127 -10.04637218 13.08337774 -10.0625 11.125 C-10.07410156 10.03445313 -10.08570313 8.94390625 -10.09765625 7.8203125 C-10 5 -10 5 -9 3 C-9.78375 3.474375 -10.5675 3.94875 -11.375 4.4375 C-12.88948678 5.33898023 -14.4235897 6.21179485 -16 7 C-12.92687851 -0.42671026 -7.33502933 -1.09564117 0 0 Z " fill="#626363" transform="translate(150,4)"/>
<path d="M0 0 C0.9765625 6.0546875 0.9765625 6.0546875 1 8 C-1 10 -1 10 -3.625 10.125 C-4.40875 10.08375 -5.1925 10.0425 -6 10 C-6.94296589 6.33291043 -7.11421833 3.64653273 -6 0 C-3.50907189 -1.24546405 -2.58919267 -0.7767578 0 0 Z " fill="#767677" transform="translate(111,33)"/>
<path d="M0 0 C1.98 0 3.96 0 6 0 C7 5 7 5 8 10 C5.36 10 2.72 10 0 10 C-1.6415049 6.7169902 -0.51888624 3.57454967 0 0 Z " fill="#868686" transform="translate(56,33)"/>
<path d="M0 0 C2.31 0 4.62 0 7 0 C7 3.3 7 6.6 7 10 C4.69 10 2.38 10 0 10 C0 6.7 0 3.4 0 0 Z " fill="#787979" transform="translate(96,33)"/>
<path d="M0 0 C2.31 0 4.62 0 7 0 C7 3.3 7 6.6 7 10 C4.69 10 2.38 10 0 10 C0 6.7 0 3.4 0 0 Z " fill="#4D4E4E" transform="translate(138,33)"/>
<path d="M0 0 C2.31 0 4.62 0 7 0 C7 3.3 7 6.6 7 10 C4.69 10 2.38 10 0 10 C0 6.7 0 3.4 0 0 Z " fill="#494A4A" transform="translate(65,33)"/>
<path d="M0 0 C1.32 0 2.64 0 4 0 C5.31626692 3.61973402 6 6.09567131 6 10 C5.01 10 4.02 10 3 10 C3 9.34 3 8.68 3 8 C2.01 8.66 1.02 9.32 0 10 C-0.99 10 -1.98 10 -3 10 C-2.69201674 8.51988629 -2.378482 7.04092675 -2.0625 5.5625 C-1.88847656 4.73878906 -1.71445313 3.91507813 -1.53515625 3.06640625 C-1 1 -1 1 0 0 Z " fill="#7E7F7F" transform="translate(123,33)"/>
<path d="M0 0 C0.33 0 0.66 0 1 0 C1 5.28 1 10.56 1 16 C4.13384992 14.74646003 7.03145514 13.53924548 10 12 C9.67 14.64 9.34 17.28 9 20 C3.06 20 -2.88 20 -9 20 C-9 19.01 -9 18.02 -9 17 C-8.34 17.33 -7.68 17.66 -7 18 C-4.45384991 18.23172827 -1.92603775 18.41894529 0.625 18.5625 C1.33140625 18.60568359 2.0378125 18.64886719 2.765625 18.69335938 C4.51018537 18.79944751 6.25506697 18.90022889 8 19 C7.67 18.01 7.34 17.02 7 16 C6.67 16.33 6.34 16.66 6 17 C4.02 17 2.04 17 0 17 C0 11.39 0 5.78 0 0 Z " fill="#3F3F3F" transform="translate(106,7)"/>
<path d="M0 0 C0.33 0 0.66 0 1 0 C1 3.96 1 7.92 1 12 C0.34 10.68 -0.32 9.36 -1 8 C-2.32 10.31 -3.64 12.62 -5 15 C-5.99 15 -6.98 15 -8 15 C-8.66 13.02 -9.32 11.04 -10 9 C-8.68 10.32 -7.36 11.64 -6 13 C-5.34 11.02 -4.68 9.04 -4 7 C-4.66 7 -5.32 7 -6 7 C-6 5.68 -6 4.36 -6 3 C-5.34 3 -4.68 3 -4 3 C-3.67 2.34 -3.34 1.68 -3 1 C-2.67 1.66 -2.34 2.32 -2 3 C-1.34 2.01 -0.68 1.02 0 0 Z " fill="#6F6F6F" transform="translate(62,12)"/>
<path d="M0 0 C1.65 0.33 3.3 0.66 5 1 C5.33 3.64 5.66 6.28 6 9 C5.34 9 4.68 9 4 9 C4 8.34 4 7.68 4 7 C3.01 7 2.02 7 1 7 C1 7.99 1 8.98 1 10 C0.01 10 -0.98 10 -2 10 C-1.54177532 6.53058454 -1.10868317 3.32604951 0 0 Z " fill="#888989" transform="translate(75,33)"/>
<path d="M0 0 C2.64 0 5.28 0 8 0 C8 0.99 8 1.98 8 3 C7.34 3 6.68 3 6 3 C6 5.31 6 7.62 6 10 C4.68 10 3.36 10 2 10 C2 7.69 2 5.38 2 3 C1.34 3 0.68 3 0 3 C0 2.01 0 1.02 0 0 Z " fill="#848484" transform="translate(113,33)"/>
<path d="M0 0 C2.64 0 5.28 0 8 0 C8 0.99 8 1.98 8 3 C7.34 3 6.68 3 6 3 C6 5.31 6 7.62 6 10 C4.68 10 3.36 10 2 10 C2 7.69 2 5.38 2 3 C1.34 3 0.68 3 0 3 C0 2.01 0 1.02 0 0 Z " fill="#787979" transform="translate(129,33)"/>
<path d="M0 0 C6.27 0 12.54 0 19 0 C20.36038766 4.7613568 21.27360466 8.19366296 21.625 12.9375 C21.69976562 13.89527344 21.77453125 14.85304688 21.8515625 15.83984375 C21.90054688 16.55269531 21.94953125 17.26554687 22 18 C20 16 20 16 19.5625 12.5625 C19.00818778 9.05185595 18.76686876 8.04507691 16 6 C16.66 5.67 17.32 5.34 18 5 C18 3.68 18 2.36 18 1 C12.06 1 6.12 1 0 1 C0 0.67 0 0.34 0 0 Z " fill="#494949" transform="translate(113,4)"/>
<path d="M0 0 C1.32 0 2.64 0 4 0 C4.66 2.64 5.32 5.28 6 8 C4.02 8 2.04 8 0 8 C-1.125 2.25 -1.125 2.25 0 0 Z M2 3 C2 3.99 2 4.98 2 6 C2.66 5.67 3.32 5.34 4 5 C3.34 4.34 2.68 3.68 2 3 Z " fill="#929292" transform="translate(80,11)"/>
<path d="M0 0 C1.98 0 3.96 0 6 0 C4.68 0.33 3.36 0.66 2 1 C2 1.66 2 2.32 2 3 C2.66 3.33 3.32 3.66 4 4 C3.34 4 2.68 4 2 4 C2 4.66 2 5.32 2 6 C3.32 6 4.64 6 6 6 C6 6.66 6 7.32 6 8 C4.02 8 2.04 8 0 8 C0 5.36 0 2.72 0 0 Z " fill="#BDBDBD" transform="translate(65,34)"/>
<path d="M0 0 C1.65 0 3.3 0 5 0 C4.01 0.33 3.02 0.66 2 1 C2 1.66 2 2.32 2 3 C2.66 3.33 3.32 3.66 4 4 C3.34 4 2.68 4 2 4 C2 4.66 2 5.32 2 6 C3.32 6 4.64 6 6 6 C6 6.66 6 7.32 6 8 C4.02 8 2.04 8 0 8 C0 5.36 0 2.72 0 0 Z " fill="#BEBFBF" transform="translate(139,34)"/>
<path d="M0 0 C0.33 0 0.66 0 1 0 C1 5.61 1 11.22 1 17 C1.99 17.33 2.98 17.66 4 18 C4 18.33 4 18.66 4 19 C2.02 19 0.04 19 -2 19 C-1.67 18.34 -1.34 17.68 -1 17 C-0.76725791 14.12089412 -0.58027243 11.25853505 -0.4375 8.375 C-0.39431641 7.57320312 -0.35113281 6.77140625 -0.30664062 5.9453125 C-0.20048543 3.9637489 -0.09973145 1.98189729 0 0 Z " fill="#E8E8E8" transform="translate(46,7)"/>
<path d="M0 0 C0.66 0 1.32 0 2 0 C2 1.98 2 3.96 2 6 C3.32 6 4.64 6 6 6 C6 6.66 6 7.32 6 8 C4.02 8 2.04 8 0 8 C0 5.36 0 2.72 0 0 Z " fill="#B8B8B8" transform="translate(83,34)"/>
</svg>
